# xmcd
# Copyright (C) 1995-1998 Ti Kan
#
# Track frame offsets:
#       150
#       16159
#       29298
#       46569
#       60209
#       73906
#       88381
#       102674
#       118482
#       131531
#       146423
#       160769
#       177732
#       191220
#       205235
#       219168
#
# Disc length: 3020 seconds
#
# Revision: 0
# Processed by: cddbd v1.5.2PL0 Copyright (c) Steve Scherf et al.
# Submitted via: CD-Transfer v1.0
#
DISCID=eb0bca10
DTITLE=Alpenland/Säntis Feger - 
DYEAR=2008
DGENRE=
TTITLE0=Säntisfeger Geben Gas
TTITLE1=Es Lebe Die Liebe
TTITLE2=Wahre Träume
TTITLE3=Einer Für Alle
TTITLE4=Kuschelstunden
TTITLE5=Die Sonne Schein Nicht Ohne Dich
TTITLE6=Lebe Heut Froh Und Stark
TTITLE7=Wir Kommen Alle In Den Himmel
TTITLE8=Richtig Fetzig Ist Die Volksmusik
TTITLE9=Der Sommerwind Von Malibu
TTITLE10=Lieber Heut Als Morgen
TTITLE11=Ich Denk Oft An Dich
TTITLE12=Am Gipfelkreuz
TTITLE13=Mal Ja, Mal Nein
TTITLE14=Der Schönste Ort Der Welt
TTITLE15=Bis Zum Nächsten Mal
EXTD=
EXTT0=
EXTT1=
EXTT2=
EXTT3=
EXTT4=
EXTT5=
EXTT6=
EXTT7=
EXTT8=
EXTT9=
EXTT10=
EXTT11=
EXTT12=
EXTT13=
EXTT14=
EXTT15=
PLAYORDER=
